<svg xmlns="http://www.w3.org/2000/svg" xmlns:xlink="http://www.w3.org/1999/xlink" width="500" zoomAndPan="magnify" viewBox="0 0 375 374.999991" height="500" preserveAspectRatio="xMidYMid meet" version="1.0"><defs><g/><clipPath id="5965467376"><path d="M 77 37.5 L 298 37.5 L 298 297 L 77 297 Z M 77 37.5 " clip-rule="nonzero"/></clipPath></defs><g clip-path="url(#5965467376)"><path fill="#000000" d="M 186.269531 128.199219 C 179.570312 122.398438 171.777344 117.949219 163.503906 115.039062 C 164.042969 108.527344 163.597656 100.503906 160.390625 92.476562 C 159.570312 90.4375 157.375 89.3125 155.242188 89.847656 C 155.242188 89.847656 149.292969 91.304688 142.125 95.667969 C 142.03125 95.464844 141.933594 95.261719 141.84375 95.0625 C 139.4375 90.039062 135.976562 85.78125 131.289062 83.4375 C 129.59375 82.589844 127.550781 82.925781 126.210938 84.261719 C 126.210938 84.261719 109.601562 100.925781 105.570312 122.03125 C 89.457031 133.648438 77.699219 155.015625 77.699219 188.515625 C 77.699219 251.042969 117.910156 276.582031 123.273438 279.710938 C 130.902344 287.070312 144.367188 292.214844 159.914062 294.722656 C 182.875 298.425781 210.34375 296.554688 228.796875 289.171875 C 274.621094 270.859375 297.507812 226.492188 297.507812 188.785156 C 297.507812 157.0625 290.898438 147.382812 284.601562 119.082031 C 272.691406 65.484375 295.292969 51.636719 295.292969 51.636719 C 296.777344 50.789062 297.632812 49.15625 297.492188 47.460938 C 297.351562 45.761719 296.238281 44.292969 294.640625 43.699219 C 294.640625 43.699219 277.914062 37.476562 257.398438 37.964844 C 236.5 38.460938 211.792969 45.84375 196.390625 73.109375 C 188.113281 87.757812 185.859375 107.117188 186.269531 128.199219 Z M 201.75 221.464844 C 201.695312 229.535156 201.136719 237.113281 199.816406 243.976562 C 197.671875 255.070312 193.535156 264.371094 186.628906 271.167969 C 178.621094 279.050781 166.707031 283.722656 149.203125 283.421875 C 153 284.492188 157.074219 285.367188 161.3125 286.046875 C 182.714844 289.496094 208.328125 287.894531 225.535156 281.015625 C 267.636719 264.179688 288.714844 223.4375 288.714844 188.785156 C 288.714844 157.914062 282.144531 148.527344 276.023438 120.988281 C 266.746094 79.265625 276.902344 58.730469 284.402344 49.832031 C 278.175781 48.289062 268.472656 46.496094 257.605469 46.753906 C 239.289062 47.1875 217.546875 53.527344 204.042969 77.429688 C 195.308594 92.894531 194.203125 114.074219 195.371094 136.777344 C 214.824219 154.28125 225.953125 153.9375 225.953125 153.9375 L 225.953125 153.949219 C 226.632812 153.75 227.367188 153.714844 228.097656 153.875 C 230.21875 154.335938 231.648438 156.253906 231.558594 158.351562 C 231.628906 160.265625 231.417969 166.472656 226.621094 173.6875 C 222.539062 179.828125 214.898438 186.992188 200.335938 192.390625 C 201.183594 202.167969 201.765625 211.652344 201.753906 220.554688 C 201.765625 220.691406 201.769531 220.828125 201.773438 220.964844 C 201.773438 221.136719 201.765625 221.304688 201.75 221.464844 Z M 171.394531 200.992188 C 131.082031 215.765625 116.484375 244.765625 128.96875 272.304688 C 154.917969 277.363281 170.941406 274.28125 180.460938 264.910156 C 186.175781 259.285156 189.410156 251.492188 191.179688 242.316406 C 192.203125 237.003906 192.738281 231.238281 192.914062 225.144531 C 187.4375 224.484375 183.25 222.5625 180.070312 220.03125 C 173.753906 214.992188 171.464844 207.324219 171.394531 200.992188 Z M 192.203125 185.851562 C 181.144531 187.171875 166.917969 186.609375 148.640625 182.699219 C 123.109375 177.226562 101.949219 194.703125 100.269531 218.757812 C 99.363281 231.765625 104.078125 246.523438 116.371094 260.785156 C 111.933594 232.21875 131.253906 203.9375 175.300781 190.40625 C 175.496094 190.328125 175.691406 190.273438 175.894531 190.222656 C 179.03125 189.277344 182.28125 188.402344 185.660156 187.609375 C 187.984375 187.0625 190.164062 186.472656 192.203125 185.851562 Z M 135.601562 103.125 C 135.125 101.664062 134.566406 100.222656 133.90625 98.847656 C 132.875 96.695312 131.617188 94.6875 129.984375 93.152344 C 125.488281 98.390625 116.152344 110.734375 113.941406 125.246094 C 113.75 126.464844 113.066406 127.546875 112.039062 128.234375 C 97.019531 138.316406 86.492188 157.800781 86.492188 188.515625 C 86.492188 201.578125 88.390625 212.886719 91.375 222.59375 C 91.351562 221.097656 91.398438 219.609375 91.496094 218.148438 C 93.546875 188.796875 119.335938 167.433594 150.480469 174.101562 C 198.335938 184.355469 214.984375 170.289062 220.421875 162.21875 C 213.882812 160.792969 203.335938 156.136719 188.585938 142.515625 C 188.234375 142.269531 187.914062 141.976562 187.644531 141.640625 C 186.3125 140.386719 184.949219 139.070312 183.558594 137.675781 C 176.472656 130.589844 167.625 125.421875 158.175781 122.527344 C 158.140625 122.523438 158.097656 122.519531 158.058594 122.515625 C 157.613281 122.445312 157.1875 122.3125 156.796875 122.121094 C 152.074219 120.796875 147.210938 120.03125 142.351562 119.882812 C 140.140625 119.8125 138.324219 118.109375 138.113281 115.910156 C 137.8125 112.765625 137.21875 108.546875 135.992188 104.375 C 135.792969 103.972656 135.664062 103.550781 135.601562 103.125 Z M 191.746094 195.132812 C 190.429688 195.488281 189.074219 195.832031 187.671875 196.160156 C 185.136719 196.757812 182.679688 197.402344 180.292969 198.09375 C 179.390625 202.195312 180.414062 209.0625 185.558594 213.160156 C 187.4375 214.664062 189.871094 215.753906 192.941406 216.265625 C 192.8125 209.496094 192.355469 202.40625 191.746094 195.132812 Z M 154.855469 112.601562 C 155.046875 108.699219 154.78125 104.261719 153.550781 99.703125 C 151.296875 100.625 148.269531 102.074219 145.039062 104.226562 C 145.652344 106.695312 146.097656 109.117188 146.414062 111.324219 C 149.246094 111.574219 152.0625 112 154.855469 112.601562 Z M 154.855469 112.601562 " fill-opacity="1" fill-rule="evenodd"/></g><g fill="#000000" fill-opacity="1"><g transform="translate(86.609265, 310.569181)"><g><path d="M 10.234375 6.089844 C 13.621094 7.78125 17.714844 7.167969 19.992188 3.976562 L 18.0625 1.738281 C 16.394531 4.097656 13.816406 4.632812 11.808594 3.628906 C 9.644531 2.550781 9.070312 0.25 10.191406 -1.996094 L 16.042969 -13.726562 L 24.941406 -9.285156 L 26.179688 -11.765625 L 17.28125 -16.207031 L 20.582031 -22.820312 L 17.234375 -23.605469 L 14.289062 -17.699219 L 9.921875 -19.878906 L 8.683594 -17.398438 L 13.050781 -15.21875 L 7.042969 -3.171875 C 5.234375 0.449219 6.496094 4.226562 10.234375 6.089844 Z M 10.234375 6.089844 "/></g></g></g><g fill="#000000" fill-opacity="1"><g transform="translate(105.334274, 319.847146)"><g><path d="M 19.265625 -17.445312 C 16.632812 -18.441406 13.804688 -17.679688 11.703125 -15.609375 L 11.660156 -15.625 L 12.605469 -18.984375 L 9.929688 -19.996094 L 2.058594 0.78125 L 5.183594 1.964844 L 9.519531 -9.472656 C 11.234375 -13.996094 14.375 -15.957031 17.707031 -14.695312 C 19.96875 -13.839844 20.898438 -11.699219 20.121094 -8.652344 L 23.179688 -8.527344 C 24.34375 -12.839844 22.804688 -16.105469 19.265625 -17.445312 Z M 19.265625 -17.445312 "/></g></g></g><g fill="#000000" fill-opacity="1"><g transform="translate(124.721854, 327.329087)"><g><path d="M 8.960938 3.148438 C 12.804688 4.109375 16.21875 3.148438 18.4375 0.804688 L 18.480469 0.8125 L 18.277344 1.804688 C 17.914062 3.800781 18.863281 5.625 20.957031 6.148438 C 22.621094 6.566406 24.636719 6.117188 25.863281 5.019531 L 24.625 2.53125 C 23.964844 3.183594 23.152344 3.523438 22.554688 3.375 C 21.875 3.203125 21.554688 2.488281 21.765625 1.636719 L 24.5 -9.289062 C 25.707031 -14.113281 22.59375 -18.15625 17.085938 -19.535156 C 11.496094 -20.933594 6.480469 -18.652344 5.210938 -15.203125 L 7.84375 -13.230469 C 8.65625 -15.75 12.167969 -17.636719 16.222656 -16.621094 C 19.976562 -15.683594 22.101562 -13.292969 21.429688 -10.601562 C 21.191406 -9.664062 20.359375 -9.238281 19.261719 -9.375 L 13.765625 -10.070312 C 6.554688 -10.96875 3.128906 -8.878906 2.261719 -5.421875 C 1.300781 -1.578125 4.054688 1.921875 8.960938 3.148438 Z M 10.253906 0.34375 C 6.96875 -0.480469 4.972656 -2.476562 5.515625 -4.652344 C 6.007812 -6.613281 8.046875 -7.875 13.414062 -7.210938 L 20.273438 -6.355469 L 19.890625 -4.820312 C 18.84375 -0.636719 14.777344 1.476562 10.253906 0.34375 Z M 10.253906 0.34375 "/></g></g></g><g fill="#000000" fill-opacity="1"><g transform="translate(151.572378, 333.847615)"><g><path d="M 9.171875 1.101562 L 13.496094 1.621094 L 24.882812 -19.386719 L 21.390625 -19.808594 L 11.753906 -1.558594 L 11.707031 -1.5625 L 6.667969 -21.574219 L 3.132812 -22 Z M 9.171875 1.101562 "/></g></g></g><g fill="#000000" fill-opacity="1"><g transform="translate(175.536751, 336.721891)"><g><path d="M 13.597656 0.835938 C 18.570312 0.820312 22.738281 -1.703125 24.179688 -5.269531 L 21.273438 -6.449219 C 20.046875 -4.023438 17.105469 -2.210938 13.632812 -2.199219 C 8.835938 -2.183594 5.261719 -5.382812 4.761719 -10.003906 L 23.460938 -10.0625 C 23.503906 -10.503906 23.5 -10.988281 23.5 -11.382812 C 23.390625 -18.246094 19.105469 -23.160156 12.59375 -23.136719 C 5.996094 -23.117188 1.261719 -18.175781 1.28125 -11.355469 C 1.304688 -4.273438 6.515625 0.859375 13.597656 0.835938 Z M 4.796875 -12.949219 C 5.398438 -17.175781 8.425781 -20.046875 12.5625 -20.058594 C 16.609375 -20.070312 19.476562 -17.53125 19.929688 -13 Z M 4.796875 -12.949219 "/></g></g></g><g fill="#000000" fill-opacity="1"><g transform="translate(201.653256, 336.231185)"><g><path d="M 2.191406 -0.191406 L 5.523438 -0.484375 L 2.695312 -32.695312 L -0.636719 -32.40625 Z M 2.191406 -0.191406 "/></g></g></g><g fill="#000000" fill-opacity="1"><g transform="translate(209.892579, 335.548599)"><g/></g></g><g fill="#000000" fill-opacity="1"><g transform="translate(222.604652, 333.907159)"><g><path d="M 4.765625 -1.058594 L 8.03125 -1.785156 L 3.769531 -20.757812 L 13.132812 -22.839844 L 12.53125 -25.542969 L 3.167969 -23.464844 L 2.453125 -26.683594 C 1.859375 -29.347656 3.089844 -31.515625 5.367188 -32.019531 C 7.515625 -32.496094 9.691406 -31.222656 10.660156 -29.09375 L 13.269531 -30.9375 C 11.78125 -33.984375 8.429688 -35.675781 4.609375 -34.824219 C 0.398438 -33.890625 -1.824219 -30.511719 -0.9375 -26.515625 L -0.0976562 -22.738281 L -4.863281 -21.679688 L -4.261719 -18.972656 L 0.503906 -20.03125 Z M 4.765625 -1.058594 "/></g></g></g><g fill="#000000" fill-opacity="1"><g transform="translate(243.05057, 329.48793)"><g><path d="M 12.707031 -3.511719 C 19.476562 -5.875 22.351562 -11.914062 19.972656 -18.726562 C 17.578125 -25.578125 11.566406 -28.511719 4.796875 -26.144531 C -1.933594 -23.792969 -4.808594 -17.753906 -2.414062 -10.902344 C -0.03125 -4.089844 5.980469 -1.160156 12.707031 -3.511719 Z M 11.707031 -6.375 C 6.847656 -4.675781 2.53125 -6.894531 0.742188 -12.003906 C -1.042969 -17.113281 0.953125 -21.539062 5.8125 -23.238281 C 10.671875 -24.9375 14.988281 -22.714844 16.773438 -17.609375 C 18.558594 -12.5 16.566406 -8.074219 11.707031 -6.375 Z M 11.707031 -6.375 "/></g></g></g><g fill="#000000" fill-opacity="1"><g transform="translate(269.063499, 320.154501)"><g><path d="M 0.394531 -0.195312 L 3.90625 -1.929688 L 5.496094 -13.214844 L 15.347656 -7.574219 L 18.894531 -9.328125 L 6.457031 -16.042969 L 8.667969 -29.054688 L 5.195312 -27.34375 L 3.667969 -16.921875 L -5.574219 -22.023438 L -9.046875 -20.3125 L 2.628906 -14.152344 Z M 0.394531 -0.195312 "/></g></g></g></svg>