<svg xmlns="http://www.w3.org/2000/svg" xmlns:xlink="http://www.w3.org/1999/xlink" width="500" zoomAndPan="magnify" viewBox="0 0 375 374.999991" height="500" preserveAspectRatio="xMidYMid meet" version="1.0"><defs><clipPath id="6c7da03a48"><path d="M 77 37.5 L 298 37.5 L 298 297 L 77 297 Z M 77 37.5 " clip-rule="nonzero"/></clipPath></defs><g clip-path="url(#6c7da03a48)"><path fill="#ffffff" d="M 186.269531 128.199219 C 179.570312 122.398438 171.777344 117.949219 163.503906 115.039062 C 164.042969 108.527344 163.597656 100.503906 160.390625 92.476562 C 159.570312 90.4375 157.375 89.3125 155.242188 89.847656 C 155.242188 89.847656 149.292969 91.304688 142.125 95.667969 C 142.03125 95.464844 141.933594 95.261719 141.84375 95.0625 C 139.4375 90.039062 135.976562 85.78125 131.289062 83.4375 C 129.59375 82.589844 127.550781 82.925781 126.210938 84.261719 C 126.210938 84.261719 109.601562 100.925781 105.570312 122.03125 C 89.457031 133.648438 77.699219 155.015625 77.699219 188.515625 C 77.699219 251.042969 117.910156 276.582031 123.273438 279.710938 C 130.902344 287.070312 144.367188 292.214844 159.914062 294.722656 C 182.875 298.425781 210.34375 296.554688 228.796875 289.171875 C 274.621094 270.859375 297.507812 226.492188 297.507812 188.785156 C 297.507812 157.0625 290.898438 147.382812 284.601562 119.082031 C 272.691406 65.484375 295.292969 51.636719 295.292969 51.636719 C 296.777344 50.789062 297.632812 49.15625 297.492188 47.460938 C 297.351562 45.761719 296.238281 44.292969 294.640625 43.699219 C 294.640625 43.699219 277.914062 37.476562 257.398438 37.964844 C 236.5 38.460938 211.792969 45.84375 196.390625 73.109375 C 188.113281 87.757812 185.859375 107.117188 186.269531 128.199219 Z M 201.75 221.464844 C 201.695312 229.535156 201.136719 237.113281 199.816406 243.976562 C 197.671875 255.070312 193.535156 264.371094 186.628906 271.167969 C 178.621094 279.050781 166.707031 283.722656 149.203125 283.421875 C 153 284.492188 157.074219 285.367188 161.3125 286.046875 C 182.714844 289.496094 208.328125 287.894531 225.535156 281.015625 C 267.636719 264.179688 288.714844 223.4375 288.714844 188.785156 C 288.714844 157.914062 282.144531 148.527344 276.023438 120.988281 C 266.746094 79.265625 276.902344 58.730469 284.402344 49.832031 C 278.175781 48.289062 268.472656 46.496094 257.605469 46.753906 C 239.289062 47.1875 217.546875 53.527344 204.042969 77.429688 C 195.308594 92.894531 194.203125 114.074219 195.371094 136.777344 C 214.824219 154.28125 225.953125 153.9375 225.953125 153.9375 L 225.953125 153.949219 C 226.632812 153.75 227.367188 153.714844 228.097656 153.875 C 230.21875 154.335938 231.648438 156.253906 231.558594 158.351562 C 231.628906 160.265625 231.417969 166.472656 226.621094 173.6875 C 222.539062 179.828125 214.898438 186.992188 200.335938 192.390625 C 201.183594 202.167969 201.765625 211.652344 201.753906 220.554688 C 201.765625 220.691406 201.769531 220.828125 201.773438 220.964844 C 201.773438 221.136719 201.765625 221.304688 201.75 221.464844 Z M 171.394531 200.992188 C 131.082031 215.765625 116.484375 244.765625 128.96875 272.304688 C 154.917969 277.363281 170.941406 274.28125 180.460938 264.910156 C 186.175781 259.285156 189.410156 251.492188 191.179688 242.316406 C 192.203125 237.003906 192.738281 231.238281 192.914062 225.144531 C 187.4375 224.484375 183.25 222.5625 180.070312 220.03125 C 173.753906 214.992188 171.464844 207.324219 171.394531 200.992188 Z M 192.203125 185.851562 C 181.144531 187.171875 166.917969 186.609375 148.640625 182.699219 C 123.109375 177.226562 101.949219 194.703125 100.269531 218.757812 C 99.363281 231.765625 104.078125 246.523438 116.371094 260.785156 C 111.933594 232.21875 131.253906 203.9375 175.300781 190.40625 C 175.496094 190.328125 175.691406 190.273438 175.894531 190.222656 C 179.03125 189.277344 182.28125 188.402344 185.660156 187.609375 C 187.984375 187.0625 190.164062 186.472656 192.203125 185.851562 Z M 135.601562 103.125 C 135.125 101.664062 134.566406 100.222656 133.90625 98.847656 C 132.875 96.695312 131.617188 94.6875 129.984375 93.152344 C 125.488281 98.390625 116.152344 110.734375 113.941406 125.246094 C 113.75 126.464844 113.066406 127.546875 112.039062 128.234375 C 97.019531 138.316406 86.492188 157.800781 86.492188 188.515625 C 86.492188 201.578125 88.390625 212.886719 91.375 222.59375 C 91.351562 221.097656 91.398438 219.609375 91.496094 218.148438 C 93.546875 188.796875 119.335938 167.433594 150.480469 174.101562 C 198.335938 184.355469 214.984375 170.289062 220.421875 162.21875 C 213.882812 160.792969 203.335938 156.136719 188.585938 142.515625 C 188.234375 142.269531 187.914062 141.976562 187.644531 141.640625 C 186.3125 140.386719 184.949219 139.070312 183.558594 137.675781 C 176.472656 130.589844 167.625 125.421875 158.175781 122.527344 C 158.140625 122.523438 158.097656 122.519531 158.058594 122.515625 C 157.613281 122.445312 157.1875 122.3125 156.796875 122.121094 C 152.074219 120.796875 147.210938 120.03125 142.351562 119.882812 C 140.140625 119.8125 138.324219 118.109375 138.113281 115.910156 C 137.8125 112.765625 137.21875 108.546875 135.992188 104.375 C 135.792969 103.972656 135.664062 103.550781 135.601562 103.125 Z M 191.746094 195.132812 C 190.429688 195.488281 189.074219 195.832031 187.671875 196.160156 C 185.136719 196.757812 182.679688 197.402344 180.292969 198.09375 C 179.390625 202.195312 180.414062 209.0625 185.558594 213.160156 C 187.4375 214.664062 189.871094 215.753906 192.941406 216.265625 C 192.8125 209.496094 192.355469 202.40625 191.746094 195.132812 Z M 154.855469 112.601562 C 155.046875 108.699219 154.78125 104.261719 153.550781 99.703125 C 151.296875 100.625 148.269531 102.074219 145.039062 104.226562 C 145.652344 106.695312 146.097656 109.117188 146.414062 111.324219 C 149.246094 111.574219 152.0625 112 154.855469 112.601562 Z M 154.855469 112.601562 " fill-opacity="1" fill-rule="evenodd"/></g></svg>